<svg width="64" height="64" viewBox="0 0 100 100" fill="none" xmlns="http://www.w3.org/2000/svg">
  <path d="M 12 35 C 12 18, 88 18, 88 35 C 88 40, 78 45, 68 45 C 58 45, 12 45, 12 35 Z" fill="#1A1A1A" />
  <circle cx="35" cy="23" r="1.5" fill="#FFFFFF" opacity="0.85" />
  <circle cx="50" cy="20" r="1.5" fill="#FFFFFF" opacity="0.85" />
  <circle cx="65" cy="23" r="1.5" fill="#FFFFFF" opacity="0.85" />
  <circle cx="42" cy="28" r="1.5" fill="#FFFFFF" opacity="0.85" />
  <circle cx="58" cy="28" r="1.5" fill="#FFFFFF" opacity="0.85" />
  <path d="M 12 50 C 12 48, 88 48, 88 50 C 88 56, 76 60, 68 60 L 12 60 Z" fill="#1A1A1A" />
  <path d="M 12 65 C 20 62, 28 68, 36 65 C 44 62, 52 68, 60 65 C 68 62, 76 68, 88 65" stroke="#FF6B00" strokeWidth="3.5" strokeLinecap="round" />
  <path d="M 12 70 H 68 C 76 70, 88 74, 88 80 C 88 86, 76 88, 68 88 H 12 C 12 80, 12 70, 12 70 Z" fill="#1A1A1A" />
  <path d="M 12 35 L 12 80 C 12 84, 16 88, 20 88 H 68 C 84 88, 92 82, 92 74 C 92 68, 86 63, 80 62 C 86 61, 92 56, 92 48 C 92 40, 84 35, 68 35 H 12 Z" stroke="#1A1A1A" strokeWidth="4" strokeLinejoin="round" strokeLinecap="round" />
</svg>